<svg width="24" height="24" viewBox="0 0 24 24" fill="none" xmlns="http://www.w3.org/2000/svg">
<circle cx="12" cy="12" r="12" fill="white"/>
<g clip-path="url(#clip0_191_214)">
<g clip-path="url(#clip1_191_214)">
<path d="M11.2988 5.75V6.7998H6.04883V13.3467C6.06835 15.2883 7.31904 17.0063 9.16504 17.6191L11.2988 18.3271V19.5166L8.83594 18.6992C6.546 17.939 5.00006 15.7976 5 13.3848V5.75H11.2988ZM16.8008 7.94824V13.3008C16.8007 14.7663 15.8615 16.0673 14.4707 16.5293L11.998 17.3496L9.52637 16.5293C8.14714 16.0713 7.21207 14.7883 7.19629 13.3379V7.94824H16.8008ZM11.3486 8.66211C11.3332 8.66211 11.3203 8.67497 11.3203 8.69043V9.375C11.3203 9.38871 11.3104 9.401 11.2969 9.40332C10.1079 9.59984 9.37034 10.3243 9.37012 11.2803C9.37012 12.1474 10.0079 12.72 11.2109 12.9541L12.3867 13.1885C13.0429 13.3272 13.2432 13.4748 13.2432 13.917C13.2431 14.4717 12.9152 14.6621 12.0039 14.6621C11.0411 14.6621 10.7265 14.3747 10.6924 13.6748C10.6915 13.6601 10.6798 13.6477 10.665 13.6475H9.30664C9.29128 13.6477 9.27897 13.6613 9.2793 13.6768C9.3015 14.7123 10.0375 15.4262 11.2959 15.6123C11.3097 15.6143 11.3203 15.6267 11.3203 15.6406V16.334C11.3203 16.3494 11.3332 16.3623 11.3486 16.3623H12.6143C12.6296 16.3621 12.6416 16.3493 12.6416 16.334V15.6494C12.6416 15.6356 12.6524 15.6242 12.666 15.6221C13.9631 15.4426 14.7107 14.6913 14.7109 13.7178C14.7109 12.8421 14.0456 12.2605 12.7607 12.0264L11.6396 11.8184C10.9288 11.6883 10.7647 11.4888 10.7646 11.0986C10.7738 10.5524 11.0742 10.3614 11.9307 10.3613C12.7948 10.3613 13.1258 10.5987 13.1777 11.2979C13.179 11.3124 13.1914 11.3242 13.2061 11.3242H14.5645C14.5798 11.324 14.592 11.3112 14.5918 11.2959C14.5689 10.3034 13.8165 9.61494 12.665 9.41211C12.6517 9.40963 12.6416 9.39735 12.6416 9.38379V8.69043C12.6416 8.67508 12.6296 8.66229 12.6143 8.66211H11.3486ZM19 13.3848C18.9999 15.7976 17.454 17.939 15.1641 18.6992L12.6709 19.5264V18.3359L14.832 17.6191C16.6924 17.0013 17.9482 15.2611 17.9482 13.3008V6.7998H12.6709V5.75H19V13.3848Z" fill="black"/>
</g>
</g>
<defs>
<clipPath id="clip0_191_214">
<rect width="14" height="14" fill="white" transform="translate(5 5.75)"/>
</clipPath>
<clipPath id="clip1_191_214">
<rect width="14" height="14" fill="white" transform="translate(5 5.75)"/>
</clipPath>
</defs>
</svg>
