<svg xmlns="http://www.w3.org/2000/svg" viewBox="0 0 100 100" fill="none">
  <defs>
    <linearGradient id="veilGrad" x1="0%" y1="0%" x2="100%" y2="100%">
      <stop offset="0%" style="stop-color:#0ea5e9;stop-opacity:1" />
      <stop offset="100%" style="stop-color:#d946ef;stop-opacity:1" />
    </linearGradient>
    <linearGradient id="shieldGrad" x1="0%" y1="0%" x2="100%" y2="100%">
      <stop offset="0%" style="stop-color:#38bdf8;stop-opacity:0.8" />
      <stop offset="100%" style="stop-color:#c026d3;stop-opacity:0.8" />
    </linearGradient>
  </defs>
  <!-- Shield shape -->
  <path d="M50 5 L90 20 L90 50 C90 75 70 90 50 95 C30 90 10 75 10 50 L10 20 Z" 
        fill="url(#veilGrad)" opacity="0.9"/>
  <!-- Inner shield -->
  <path d="M50 15 L80 27 L80 50 C80 70 65 82 50 86 C35 82 20 70 20 50 L20 27 Z" 
        fill="#0c4a6e" opacity="0.8"/>
  <!-- Receipt icon -->
  <rect x="35" y="30" width="30" height="40" rx="2" fill="white" opacity="0.9"/>
  <rect x="40" y="36" width="20" height="2" fill="#0ea5e9"/>
  <rect x="40" y="42" width="15" height="2" fill="#64748b"/>
  <rect x="40" y="48" width="18" height="2" fill="#64748b"/>
  <rect x="40" y="54" width="12" height="2" fill="#64748b"/>
  <rect x="40" y="60" width="16" height="2" fill="#d946ef"/>
  <!-- Privacy dots -->
  <circle cx="30" cy="50" r="3" fill="#38bdf8" opacity="0.7"/>
  <circle cx="70" cy="50" r="3" fill="#e879f9" opacity="0.7"/>
  <circle cx="50" cy="78" r="3" fill="#7dd3fc" opacity="0.7"/>
</svg>
